<?xml version="1.0" standalone="no"?>
<!DOCTYPE svg PUBLIC "-//W3C//DTD SVG 20010904//EN"
 "http://www.w3.org/TR/2001/REC-SVG-20010904/DTD/svg10.dtd">
<svg version="1.0" xmlns="http://www.w3.org/2000/svg"
 width="700.000000pt" height="700.000000pt" viewBox="0 0 700.000000 700.000000"
 preserveAspectRatio="xMidYMid meet">
<metadata>
Created by potrace 1.14, written by Peter Selinger 2001-2017
</metadata>
<g transform="translate(0.000000,700.000000) scale(0.100000,-0.100000)"
fill="#000000" stroke="none">
<path d="M3365 6987 c-72 -15 -201 -75 -256 -118 -67 -53 -2959 -2951 -2990
-2996 -161 -234 -153 -553 19 -769 49 -61 2933 -2944 2982 -2980 57 -43 176
-94 253 -109 93 -18 223 -12 314 14 160 46 88 -21 1682 1572 806 807 1477
1479 1490 1495 13 15 44 64 67 108 116 220 90 502 -64 694 -43 54 -2909 2920
-2966 2966 -50 41 -142 88 -216 110 -72 22 -238 28 -315 13z m233 -446 c48
-24 2926 -2904 2948 -2949 25 -53 25 -124 0 -178 -16 -35 -353 -377 -1470
-1494 -797 -797 -1463 -1456 -1480 -1464 -17 -7 -46 -17 -63 -21 l-33 -7 0
3072 0 3072 33 -7 c17 -4 47 -14 65 -24z"/>
</g>
</svg>
